# xmcd
#
# Track frame offsets: 
#        150
#        19648
#        35430
#        53754
#        68468
#        82451
#        103597
#        124619
#        140614
#        155884
#
# Disc length: 2351 seconds
#
# Revision: 0
# Processed by: cddbd v1.5.1PL2 Copyright (c) Steve Scherf et al.
# Submitted via: ExactAudioCopy v0.95b3
#
DISCID=85092d0a
DTITLE=Kevin Buchanan - Silvertown
DYEAR=1999
DGENRE=Country
TTITLE0=The Color Of The Wind
TTITLE1=Under The Western Sky
TTITLE2=Shaky Ground
TTITLE3=Looking For Some Company
TTITLE4=Runaway Train
TTITLE5=Silvertown
TTITLE6=Desperately In Love
TTITLE7=San Antonio Girl
TTITLE8=Ten $ Words
TTITLE9=The Last Dance
EXTD=
EXTT0=
EXTT1=
EXTT2=
EXTT3=
EXTT4=
EXTT5=
EXTT6=
EXTT7=
EXTT8=
EXTT9=
PLAYORDER=
